<svg width="107" height="25" viewBox="0 0 107 25" fill="none" xmlns="http://www.w3.org/2000/svg">
<path fill-rule="evenodd" clip-rule="evenodd" d="M1.28182 21.1009V21.1335H0V21.1009V12.3507C0 11.9256 0.0212897 11.5054 0.0628447 11.0913C0.686169 4.87868 5.86919 0.0133682 12.1546 0V1.30016C6.15702 1.31441 1.28182 6.266 1.28182 12.3507V21.1009ZM4.48606 23.0177V23.0626V23.0631H3.20373V23.0177V12.3507C3.20373 7.34105 7.21623 3.26438 12.1536 3.25012V4.55028C7.92309 4.56454 4.48606 8.05809 4.48606 12.3507V23.0177ZM12.1502 6.50085C8.97549 6.5146 6.40625 9.12866 6.40625 12.3513V24.9643H7.68807V24.9638V12.3503C7.68858 9.85029 9.68744 7.81476 12.1502 7.80101V6.50085ZM20.4904 4.04785V4.0802V12.6491C20.4904 18.7338 15.6152 23.6854 9.61761 23.6996V23.6999V24.9998V25C16.3226 24.9858 21.7728 19.4511 21.7728 12.6493V12.6491V4.0802V4.04785H20.4904ZM17.2851 2.18567V2.14111H18.5674V2.18567V12.649V12.6498C18.5674 17.6594 14.5549 21.7361 9.61761 21.7504V21.7496V20.4502V20.4494C13.8481 20.4352 17.2851 16.9416 17.2851 12.649V2.18567ZM9.6167 18.5002C12.7915 18.4864 15.3607 15.8724 15.3607 12.6497V0.240478H14.0789V12.6502C14.0784 15.1502 12.0795 17.1858 9.6167 17.1995V18.5002Z" fill="#141414"/>
<path d="M37.7941 17.3433C37.8938 17.3433 37.9508 17.2578 37.8938 17.1581L35.8568 13.2123C36.9679 12.7991 37.6944 11.8162 37.6944 10.5484C37.6944 8.83903 36.3839 7.6567 34.6032 7.6567H30.8568C30.7713 7.6567 30.7144 7.71368 30.7144 7.79915V17.2009C30.7144 17.2863 30.7713 17.3433 30.8568 17.3433H32.2528C32.3383 17.3433 32.3953 17.2863 32.3953 17.2009V13.5114C32.3953 13.4544 32.4238 13.4259 32.4807 13.4259H34.1474L35.9993 17.2009C36.042 17.3006 36.099 17.3433 36.2129 17.3433H37.7941ZM34.5463 11.916H32.4807C32.4238 11.916 32.3953 11.8875 32.3953 11.8305V9.25214C32.3953 9.19516 32.4238 9.16667 32.4807 9.16667H34.5463C35.4295 9.16667 36.0277 9.70798 36.0277 10.5484C36.0277 11.3746 35.4295 11.916 34.5463 11.916Z" fill="#141414"/>
<path d="M41.56 17.2009C41.56 17.2863 41.617 17.3433 41.7024 17.3433H47.7708C47.8563 17.3433 47.9133 17.2863 47.9133 17.2009V15.9758C47.9133 15.8903 47.8563 15.8333 47.7708 15.8333H43.3264C43.2694 15.8333 43.2409 15.8048 43.2409 15.7479V13.2977C43.2409 13.2407 43.2694 13.2123 43.3264 13.2123H47.0728C47.1583 13.2123 47.2153 13.1553 47.2153 13.0698V11.8447C47.2153 11.7593 47.1583 11.7023 47.0728 11.7023H43.3264C43.2694 11.7023 43.2409 11.6738 43.2409 11.6168V9.25214C43.2409 9.19516 43.2694 9.16667 43.3264 9.16667H47.7708C47.8563 9.16667 47.9133 9.10969 47.9133 9.02422V7.79915C47.9133 7.71368 47.8563 7.6567 47.7708 7.6567H41.7024C41.617 7.6567 41.56 7.71368 41.56 7.79915V17.2009Z" fill="#141414"/>
<path d="M51.71 17.2009C51.71 17.2863 51.767 17.3433 51.8525 17.3433H55.314C56.9807 17.3433 58.0918 16.6026 58.5477 15.1923C58.7043 14.708 58.7898 14.1809 58.7898 12.5C58.7898 10.8191 58.7043 10.292 58.5477 9.80769C58.0918 8.39744 56.9807 7.6567 55.314 7.6567H51.8525C51.767 7.6567 51.71 7.71368 51.71 7.79915V17.2009ZM53.391 15.7479V9.25214C53.391 9.19516 53.4194 9.16667 53.4764 9.16667H54.9152C55.9835 9.16667 56.6388 9.52279 56.9237 10.3917C57.0234 10.6624 57.0947 11.0897 57.0947 12.5C57.0947 13.896 57.0234 14.3376 56.9237 14.6083C56.6388 15.4772 55.9835 15.8333 54.9152 15.8333H53.4764C53.4194 15.8333 53.391 15.8048 53.391 15.7479Z" fill="#141414"/>
<path d="M65.6876 17.5C68.095 17.5 69.3343 16.2179 69.3343 14.4943C69.3343 12.8276 68.3086 11.9444 66.4426 11.688L65.9297 11.6168C64.6192 11.4316 64.1491 10.9758 64.1491 10.3063C64.1491 9.55128 64.6904 9.00997 65.6733 9.00997C66.4853 9.00997 67.2118 9.25214 67.9953 9.76496C68.0665 9.80769 68.1377 9.79345 68.1947 9.72222L68.8784 8.66809C68.9354 8.58262 68.9212 8.52564 68.85 8.46866C68.0807 7.88462 66.9269 7.5 65.7161 7.5C63.7218 7.5 62.4397 8.66809 62.4397 10.4202C62.4397 12.0299 63.4938 12.9274 65.3599 13.1838L65.8728 13.255C67.2118 13.4402 67.6391 13.896 67.6391 14.594C67.6391 15.406 66.9696 15.99 65.8158 15.99C64.7332 15.99 63.8072 15.463 63.1804 14.9644C63.1235 14.9074 63.038 14.9074 62.981 14.9786L62.0978 16.0043C62.0408 16.0755 62.0693 16.161 62.1263 16.2179C62.8813 16.9302 64.2631 17.5 65.6876 17.5Z" fill="#141414"/>
<path d="M73.0257 17.2009C73.0257 17.2863 73.0827 17.3433 73.1681 17.3433H74.5642C74.6496 17.3433 74.7066 17.2863 74.7066 17.2009V13.2977C74.7066 13.2407 74.7351 13.2123 74.7921 13.2123H78.4815C78.5385 13.2123 78.567 13.2407 78.567 13.2977V17.2009C78.567 17.2863 78.624 17.3433 78.7095 17.3433H80.1055C80.1909 17.3433 80.2479 17.2863 80.2479 17.2009V7.79915C80.2479 7.71368 80.1909 7.6567 80.1055 7.6567H78.7095C78.624 7.6567 78.567 7.71368 78.567 7.79915V11.6168C78.567 11.6738 78.5385 11.7023 78.4815 11.7023H74.7921C74.7351 11.7023 74.7066 11.6738 74.7066 11.6168V7.79915C74.7066 7.71368 74.6496 7.6567 74.5642 7.6567H73.1681C73.0827 7.6567 73.0257 7.71368 73.0257 7.79915V17.2009Z" fill="#141414"/>
<path d="M84.4138 17.2009C84.4138 17.2863 84.4708 17.3433 84.5563 17.3433H85.9523C86.0378 17.3433 86.0948 17.2863 86.0948 17.2009V7.79915C86.0948 7.71368 86.0378 7.6567 85.9523 7.6567H84.5563C84.4708 7.6567 84.4138 7.71368 84.4138 7.79915V17.2009Z" fill="#141414"/>
<path d="M90.2515 17.2009C90.2515 17.2863 90.3084 17.3433 90.3939 17.3433H91.7899C91.8754 17.3433 91.9324 17.2863 91.9324 17.2009V13.3974C91.9324 13.3405 91.9609 13.312 92.0178 13.312H95.7643C95.8497 13.312 95.9067 13.255 95.9067 13.1695V11.9444C95.9067 11.859 95.8497 11.802 95.7643 11.802H92.0178C91.9609 11.802 91.9324 11.7735 91.9324 11.7165V9.25214C91.9324 9.19516 91.9609 9.16667 92.0178 9.16667H96.4623C96.5478 9.16667 96.6047 9.10969 96.6047 9.02422V7.79915C96.6047 7.71368 96.5478 7.6567 96.4623 7.6567H90.3939C90.3084 7.6567 90.2515 7.71368 90.2515 7.79915V17.2009Z" fill="#141414"/>
<path d="M103.809 17.3433C103.895 17.3433 103.952 17.2863 103.952 17.2009V9.25214C103.952 9.19516 103.98 9.16667 104.037 9.16667H106.573C106.658 9.16667 106.715 9.10969 106.715 9.02422V7.79915C106.715 7.71368 106.658 7.6567 106.573 7.6567H99.6499C99.5644 7.6567 99.5074 7.71368 99.5074 7.79915V9.02422C99.5074 9.10969 99.5644 9.16667 99.6499 9.16667H102.185C102.242 9.16667 102.271 9.19516 102.271 9.25214V17.2009C102.271 17.2863 102.328 17.3433 102.413 17.3433H103.809Z" fill="#141414"/>
</svg>
