<svg width="150" height="52" viewBox="0 0 241 84" fill="none" xmlns="http://www.w3.org/2000/svg">
<path d="M90.2026 38.5175H94.6495C95.7501 38.4998 96.5756 38.1802 97.1259 37.5589C97.6673 36.982 97.938 36.2719 97.938 35.4286C97.9203 34.4168 97.5963 33.6845 96.9661 33.2318C96.4691 32.8324 95.7501 32.6327 94.8092 32.6327H90.2026V38.5175ZM87.2602 30.0098H94.8359C96.4513 30.0098 97.7694 30.4359 98.7901 31.288C100.024 32.2555 100.667 33.6357 100.721 35.4286C100.685 38.0648 99.4336 39.8578 96.9661 40.8075L101.466 49.4217H97.9647L93.9571 41.1271H90.2026V49.4217H87.2602V30.0098Z" fill="#262525"/>
<path d="M109.356 30.0098H121.752V32.7925H112.299V38.3311H120.367V40.9407H112.299V46.6391H121.752V49.4217H109.356V30.0098Z" fill="#262525"/>
<path d="M129.988 30.0098H136.778C139.405 30.0276 141.376 31.1193 142.689 33.2851C143.16 34.0129 143.457 34.7763 143.581 35.5751C143.679 36.3739 143.728 37.7542 143.728 39.7158C143.728 41.8016 143.652 43.2573 143.501 44.0828C143.43 44.4999 143.324 44.8727 143.182 45.2011C143.031 45.5207 142.849 45.8535 142.636 46.1997C142.068 47.1139 141.278 47.8684 140.266 48.4631C139.263 49.1022 138.034 49.4217 136.578 49.4217H129.988V30.0098ZM132.93 46.6391H136.445C138.096 46.6391 139.294 46.0754 140.04 44.9482C140.368 44.531 140.577 44.0029 140.665 43.3638C140.745 42.7336 140.785 41.5531 140.785 39.8223C140.785 38.1358 140.745 36.9287 140.665 36.2009C140.559 35.473 140.306 34.8828 139.907 34.4301C139.09 33.3028 137.936 32.757 136.445 32.7925H132.93V46.6391Z" fill="#262525"/>
<path d="M152.856 44.7085C154.4 45.9778 156.238 46.6213 158.368 46.6391C160.889 46.6036 162.167 45.7026 162.202 43.9363C162.22 42.4895 161.377 41.6197 159.673 41.3268C158.891 41.2203 158.035 41.1004 157.103 40.9673C155.434 40.6921 154.165 40.0752 153.295 39.1166C152.399 38.1314 151.95 36.9331 151.95 35.5218C151.95 33.8265 152.514 32.4596 153.641 31.4211C154.733 30.3915 156.282 29.8678 158.288 29.8501C160.702 29.9033 162.801 30.5735 164.585 31.8605L162.948 34.2836C161.492 33.325 159.89 32.828 158.141 32.7925C157.236 32.7925 156.482 33.0188 155.878 33.4715C155.248 33.9419 154.924 34.6431 154.906 35.5751C154.906 36.1343 155.124 36.6402 155.559 37.0929C155.993 37.5545 156.69 37.874 157.649 38.0515C158.181 38.1403 158.909 38.2423 159.832 38.3577C161.652 38.6063 162.997 39.2587 163.866 40.3149C164.727 41.3534 165.158 42.5605 165.158 43.9363C165.06 47.6465 162.788 49.5282 158.341 49.5815C155.465 49.5815 152.993 48.6939 150.925 46.9187L152.856 44.7085Z" fill="#262525"/>
<path d="M184.351 40.9407H176.669V49.4217H173.727V30.0098H176.669V38.3311H184.351V30.0098H187.294V49.4217H184.351V40.9407Z" fill="#262525"/>
<path d="M196.861 30.0098H199.804V49.4217H196.861V30.0098Z" fill="#262525"/>
<path d="M209.345 30.0098H221.74V32.7925H212.287V38.5175H220.355V41.1271H212.287V49.4217H209.345V30.0098Z" fill="#262525"/>
<path d="M232.732 32.6327H227.42V30.0098H241V32.6327H235.688V49.4217H232.732V32.6327Z" fill="#262525"/>
<mask id="mask0" mask-type="alpha" maskUnits="userSpaceOnUse" x="0" y="0" width="72" height="84">
<path d="M33.7965 23.3039C41.4569 23.3049 47.6882 29.4027 47.6882 36.8978C47.6882 43.2584 43.1996 48.6105 37.1593 50.0863L9.62143 23.3039H33.7965ZM67.5286 79.6216L54.9725 67.4104C64.9439 60.7635 71.5062 49.5674 71.5062 36.8978C71.5062 16.5521 54.5886 0 33.7945 0H0.0511091V3.88398H33.7945C52.3998 3.88398 67.5365 18.6936 67.5365 36.8978C67.5365 48.5041 61.3776 58.7233 52.0951 64.612L47.7542 60.3906C56.0151 55.673 61.5821 46.9118 61.5821 36.8978C61.5821 21.9062 49.1164 9.70995 33.7945 9.70995H0.0511091V13.5939H33.7945C46.9277 13.5939 57.6125 24.0476 57.6125 36.8978C57.6125 45.8543 52.4181 53.6417 44.8258 57.5417L40.3252 53.1649C46.9593 50.6131 51.6579 44.2944 51.6579 36.8978C51.6579 27.2447 43.6602 19.4199 33.7945 19.4199H0L31.9492 50.4918H0.0511091V54.3752H33.7945V54.3757C34.4814 54.3757 35.1576 54.3339 35.824 54.2603L40.8576 59.1556C38.6246 59.8346 36.2528 60.2017 33.7945 60.2017V60.2012H0.0511091V64.0852H33.7945V64.0857C37.3876 64.0857 40.8199 63.4075 43.9751 62.1875L48.5119 66.5996C44.0615 68.7193 39.0683 69.9117 33.7945 69.9117H0.0511091V73.7958H33.7945C40.1792 73.7958 46.1952 72.2295 51.4719 69.4777L61.9016 79.6216H0.0545827V83.5056H65.896H71.4932H71.5032L71.5082 83.5008V83.4911L67.5286 79.6216Z" fill="white"/>
</mask>
<g mask="url(#mask0)">
<path d="M33.7965 23.3039C41.4569 23.3049 47.6882 29.4027 47.6882 36.8978C47.6882 43.2584 43.1996 48.6105 37.1593 50.0863L9.62143 23.3039H33.7965ZM67.5286 79.6216L54.9725 67.4104C64.9439 60.7635 71.5062 49.5674 71.5062 36.8978C71.5062 16.5521 54.5886 0 33.7945 0H0.0511091V3.88398H33.7945C52.3998 3.88398 67.5365 18.6936 67.5365 36.8978C67.5365 48.5041 61.3776 58.7233 52.0951 64.612L47.7542 60.3906C56.0151 55.673 61.5821 46.9118 61.5821 36.8978C61.5821 21.9062 49.1164 9.70995 33.7945 9.70995H0.0511091V13.5939H33.7945C46.9277 13.5939 57.6125 24.0476 57.6125 36.8978C57.6125 45.8543 52.4181 53.6417 44.8258 57.5417L40.3252 53.1649C46.9593 50.6131 51.6579 44.2944 51.6579 36.8978C51.6579 27.2447 43.6602 19.4199 33.7945 19.4199H0L31.9492 50.4918H0.0511091V54.3752H33.7945V54.3757C34.4814 54.3757 35.1576 54.3339 35.824 54.2603L40.8576 59.1556C38.6246 59.8346 36.2528 60.2017 33.7945 60.2017V60.2012H0.0511091V64.0852H33.7945V64.0857C37.3876 64.0857 40.8199 63.4075 43.9751 62.1875L48.5119 66.5996C44.0615 68.7193 39.0683 69.9117 33.7945 69.9117H0.0511091V73.7958H33.7945C40.1792 73.7958 46.1952 72.2295 51.4719 69.4777L61.9016 79.6216H0.0545827V83.5056H65.896H71.4932H71.5032L71.5082 83.5008V83.4911L67.5286 79.6216Z" fill="black"/>
</g>
</svg>
